<?xml version="1.0" encoding="UTF-8"?>
<svg id="CJI" xmlns="http://www.w3.org/2000/svg" viewBox="0 0 1100.84 258.91">
  <defs>
    <style>
      .cls-1, .cls-2 {
        fill-rule: evenodd;
      }

      .cls-1, .cls-2, .cls-3 {
        stroke-width: 0px;
      }

      .cls-1, .cls-3 {
        fill: #fff;
      }

      .cls-2 {
        fill: #d1ae6d;
      }
    </style>
  </defs>
  <path class="cls-1" d="M312.31,87.75l6.26,2.97c-.96,5.23-2.55,9.11-4.79,11.66-2.23,2.53-5.06,3.81-8.5,3.81-4.25,0-7.74-2.18-10.47-6.52-2.73-4.35-4.11-10.3-4.11-17.83,0-7.98,1.38-14.17,4.13-18.59,2.75-4.41,6.36-6.62,10.85-6.62,3.91,0,7.09,1.73,9.53,5.2,1.46,2.04,2.55,4.99,3.28,8.83l-6.4,2.29c-.37-2.49-1.16-4.45-2.37-5.89-1.2-1.44-2.66-2.15-4.37-2.15-2.37,0-4.3,1.27-5.77,3.83-1.47,2.54-2.21,6.67-2.21,12.38,0,6.06.72,10.38,2.18,12.94,1.45,2.58,3.35,3.86,5.67,3.86,1.72,0,3.2-.81,4.43-2.45,1.24-1.63,2.12-4.21,2.67-7.71M324.12,105.37v-47.92h23.72v8.11h-17.26v10.62h16.06v8.07h-16.06v13.04h17.87v8.08h-24.33ZM353.99,105.37v-47.92h6.29l13.1,32v-32h6.01v47.92h-6.49l-12.9-31.25v31.25h-6.01ZM393.42,105.37v-39.81h-9.49v-8.11h25.43v8.11h-9.47v39.81h-6.47ZM413.54,105.37v-47.92h13.6c3.42,0,5.9.43,7.45,1.29,1.55.86,2.8,2.39,3.73,4.59.93,2.21,1.39,4.72,1.39,7.55,0,3.59-.71,6.57-2.12,8.92-1.41,2.33-3.52,3.81-6.33,4.42,1.4,1.23,2.56,2.57,3.47,4.03.91,1.46,2.13,4.05,3.67,7.78l3.91,9.35h-7.73l-4.67-10.43c-1.66-3.73-2.79-6.07-3.4-7.04-.61-.97-1.26-1.63-1.95-2-.68-.36-1.77-.54-3.26-.54h-1.3v20h-6.47ZM420.01,77.71h4.78c3.1,0,5.04-.19,5.81-.58.77-.39,1.37-1.07,1.81-2.03.43-.96.66-2.15.66-3.59,0-1.62-.29-2.91-.86-3.9-.57-.99-1.38-1.62-2.44-1.89-.52-.1-2.09-.16-4.71-.16h-5.04v12.15ZM444.5,81.7c0-4.89.48-8.98,1.46-12.29.73-2.43,1.72-4.63,2.98-6.57,1.26-1.93,2.64-3.37,4.14-4.31,1.99-1.27,4.29-1.9,6.9-1.9,4.72,0,8.49,2.19,11.32,6.57,2.83,4.37,4.25,10.47,4.25,18.26s-1.41,13.79-4.22,18.16c-2.81,4.36-6.56,6.55-11.26,6.55s-8.55-2.18-11.35-6.52c-2.81-4.35-4.21-10.34-4.21-17.96M451.15,81.38c0,5.42.84,9.54,2.51,12.34,1.68,2.8,3.8,4.2,6.38,4.2s4.69-1.38,6.34-4.17c1.65-2.78,2.47-6.94,2.47-12.5s-.81-9.58-2.41-12.29c-1.61-2.7-3.75-4.05-6.41-4.05s-4.81,1.37-6.44,4.1c-1.62,2.73-2.44,6.85-2.44,12.37M504.54,57.45h6.44v30.33c0,3.96-.24,7.02-.7,9.15-.62,2.79-1.76,5.03-3.41,6.72-1.65,1.69-3.81,2.53-6.5,2.53-3.16,0-5.59-1.32-7.29-3.97-1.7-2.64-2.56-6.53-2.57-11.65l6.09-1.05c.08,2.74.34,4.69.8,5.82.7,1.72,1.77,2.58,3.19,2.58s2.46-.61,3.05-1.85c.6-1.23.89-3.78.89-7.66v-30.95ZM517.82,57.45h6.46v25.95c0,4.11.08,6.79.24,8.01.28,1.96.94,3.54,1.97,4.72,1.04,1.19,2.47,1.79,4.27,1.79s3.22-.56,4.15-1.69c.93-1.11,1.49-2.5,1.68-4.13.19-1.64.28-4.35.28-8.14v-26.51h6.46v25.17c0,5.76-.17,9.82-.52,12.19-.35,2.38-.99,4.37-1.93,6.02-.94,1.63-2.2,2.93-3.76,3.9-1.57.97-3.63,1.45-6.16,1.45-3.05,0-5.37-.53-6.95-1.58-1.58-1.06-2.82-2.43-3.74-4.12-.92-1.68-1.52-3.46-1.81-5.31-.43-2.74-.63-6.8-.63-12.16v-25.56ZM550.16,105.37v-47.92h13.6c3.42,0,5.9.43,7.45,1.29,1.55.86,2.8,2.39,3.73,4.59.93,2.21,1.39,4.72,1.39,7.55,0,3.59-.71,6.57-2.12,8.92-1.41,2.33-3.52,3.81-6.33,4.42,1.4,1.23,2.56,2.57,3.47,4.03.91,1.46,2.13,4.05,3.67,7.78l3.91,9.35h-7.72l-4.67-10.43c-1.66-3.73-2.79-6.07-3.4-7.04-.61-.97-1.26-1.63-1.95-2-.68-.36-1.77-.54-3.25-.54h-1.31v20h-6.47ZM556.63,77.71h4.78c3.1,0,5.04-.19,5.81-.58.77-.39,1.37-1.07,1.81-2.03.43-.96.65-2.15.65-3.59,0-1.62-.29-2.91-.86-3.9-.57-.99-1.38-1.62-2.43-1.89-.52-.1-2.09-.16-4.72-.16h-5.04v12.15ZM582.23,57.45h6.46v47.92h-6.46v-47.92ZM594.83,57.45h11.81c2.66,0,4.68.3,6.09.91,1.88.83,3.49,2.3,4.82,4.42,1.34,2.11,2.36,4.7,3.06,7.75.69,3.07,1.04,6.84,1.04,11.33,0,3.94-.33,7.34-.99,10.2-.8,3.48-1.94,6.3-3.43,8.46-1.12,1.64-2.63,2.91-4.54,3.83-1.42.68-3.33,1.01-5.72,1.01h-12.15v-47.92ZM601.29,65.56v31.73h4.82c1.8,0,3.1-.15,3.91-.46,1.04-.39,1.91-1.05,2.61-1.98.69-.94,1.25-2.49,1.69-4.63.43-2.14.65-5.08.65-8.78s-.22-6.54-.65-8.52c-.44-1.99-1.05-3.54-1.83-4.64-.79-1.11-1.79-1.86-2.99-2.25-.9-.31-2.67-.46-5.31-.46h-2.9ZM626.93,57.45h6.46v47.92h-6.46v-47.92ZM660.03,87.75l6.26,2.97c-.96,5.23-2.55,9.11-4.79,11.66-2.23,2.53-5.07,3.81-8.5,3.81-4.25,0-7.74-2.18-10.47-6.52-2.73-4.35-4.11-10.3-4.11-17.83,0-7.98,1.38-14.17,4.13-18.59,2.75-4.41,6.36-6.62,10.85-6.62,3.91,0,7.09,1.73,9.54,5.2,1.46,2.04,2.55,4.99,3.28,8.83l-6.4,2.29c-.38-2.49-1.16-4.45-2.37-5.89-1.2-1.44-2.66-2.15-4.38-2.15-2.37,0-4.3,1.27-5.77,3.83-1.47,2.54-2.21,6.67-2.21,12.38,0,6.06.72,10.38,2.18,12.94,1.45,2.58,3.35,3.86,5.67,3.86,1.72,0,3.19-.81,4.43-2.45,1.24-1.63,2.13-4.21,2.67-7.71M670.53,81.7c0-4.89.48-8.98,1.46-12.29.73-2.43,1.72-4.63,2.98-6.57,1.26-1.93,2.64-3.37,4.14-4.31,1.99-1.27,4.29-1.9,6.9-1.9,4.72,0,8.49,2.19,11.32,6.57,2.83,4.37,4.25,10.47,4.25,18.26s-1.41,13.79-4.22,18.16c-2.81,4.36-6.57,6.55-11.26,6.55s-8.54-2.18-11.35-6.52c-2.81-4.35-4.21-10.34-4.21-17.96M677.18,81.38c0,5.42.84,9.54,2.51,12.34,1.68,2.8,3.8,4.2,6.38,4.2s4.69-1.38,6.34-4.17c1.65-2.78,2.47-6.94,2.47-12.5s-.81-9.58-2.41-12.29c-1.61-2.7-3.75-4.05-6.41-4.05s-4.81,1.37-6.44,4.1c-1.62,2.73-2.44,6.85-2.44,12.37M718.83,57.45h6.46v47.92h-6.46v-47.92ZM731.51,105.37v-47.92h6.29l13.1,32v-32h6.01v47.92h-6.49l-12.89-31.25v31.25h-6.01ZM770.93,105.37v-39.81h-9.49v-8.11h25.43v8.11h-9.47v39.81h-6.47ZM791.04,105.37v-47.92h23.72v8.11h-17.27v10.62h16.07v8.07h-16.07v13.04h17.88v8.08h-24.33ZM820.87,105.37v-47.92h13.61c3.42,0,5.9.43,7.45,1.29,1.55.86,2.8,2.39,3.73,4.59.93,2.21,1.39,4.72,1.39,7.55,0,3.59-.71,6.57-2.12,8.92-1.41,2.33-3.52,3.81-6.33,4.42,1.4,1.23,2.56,2.57,3.47,4.03.91,1.46,2.13,4.05,3.67,7.78l3.91,9.35h-7.73l-4.67-10.43c-1.66-3.73-2.79-6.07-3.4-7.04-.61-.97-1.26-1.63-1.95-2-.68-.36-1.77-.54-3.26-.54h-1.3v20h-6.47ZM827.34,77.71h4.78c3.1,0,5.04-.19,5.81-.58.77-.39,1.37-1.07,1.81-2.03.43-.96.66-2.15.66-3.59,0-1.62-.29-2.91-.86-3.9-.57-.99-1.38-1.62-2.44-1.89-.52-.1-2.09-.16-4.71-.16h-5.04v12.15ZM853.2,105.37v-47.92h6.29l13.1,32v-32h6.01v47.92h-6.49l-12.9-31.25v31.25h-6ZM914.28,105.37h-7.03l-2.8-10.89h-12.79l-2.64,10.89h-6.85l12.46-47.92h6.83l12.82,47.92ZM902.38,86.41l-4.41-17.78-4.32,17.78h8.73ZM938.18,87.75l6.26,2.97c-.96,5.23-2.55,9.11-4.79,11.66-2.23,2.53-5.07,3.81-8.5,3.81-4.25,0-7.74-2.18-10.48-6.52-2.73-4.35-4.11-10.3-4.11-17.83,0-7.98,1.38-14.17,4.13-18.59,2.75-4.41,6.36-6.62,10.85-6.62,3.91,0,7.09,1.73,9.54,5.2,1.46,2.04,2.55,4.99,3.28,8.83l-6.4,2.29c-.37-2.49-1.16-4.45-2.37-5.89-1.2-1.44-2.66-2.15-4.37-2.15-2.37,0-4.3,1.27-5.77,3.83-1.48,2.54-2.21,6.67-2.21,12.38,0,6.06.72,10.38,2.18,12.94,1.45,2.58,3.35,3.86,5.67,3.86,1.72,0,3.2-.81,4.43-2.45,1.24-1.63,2.12-4.21,2.67-7.71M949.79,57.45h6.46v47.92h-6.46v-47.92ZM961.1,81.7c0-4.89.48-8.98,1.46-12.29.73-2.43,1.72-4.63,2.98-6.57,1.26-1.93,2.64-3.37,4.13-4.31,2-1.27,4.29-1.9,6.9-1.9,4.71,0,8.49,2.19,11.32,6.57,2.83,4.37,4.25,10.47,4.25,18.26s-1.41,13.79-4.22,18.16c-2.81,4.36-6.57,6.55-11.26,6.55s-8.54-2.18-11.35-6.52c-2.81-4.35-4.21-10.34-4.21-17.96M967.75,81.38c0,5.42.84,9.54,2.51,12.34,1.68,2.8,3.8,4.2,6.38,4.2s4.69-1.38,6.34-4.17c1.65-2.78,2.47-6.94,2.47-12.5s-.8-9.58-2.41-12.29c-1.61-2.7-3.75-4.05-6.41-4.05s-4.81,1.37-6.45,4.1c-1.62,2.73-2.44,6.85-2.44,12.37M997.24,105.37v-47.92h6.29l13.1,32v-32h6v47.92h-6.49l-12.9-31.25v31.25h-6.01ZM1058.32,105.37h-7.04l-2.79-10.89h-12.79l-2.64,10.89h-6.86l12.46-47.92h6.83l12.82,47.92ZM1046.42,86.41l-4.41-17.78-4.32,17.78h8.73ZM1061.92,105.37v-47.53h6.46v39.45h16.06v8.08h-22.52Z"/>
  <path class="cls-1" d="M295.91,114.81h783.15c3.93,0,7.14,2.39,7.14,5.32v7.52c0,2.93-3.21,5.32-7.14,5.32H295.91c-3.93,0-7.14-2.39-7.14-5.32v-7.52c0-2.93,3.21-5.32,7.14-5.32"/>
  <path class="cls-2" d="M297.91,205.45h24.55v-2.95c-7.24,0-7.66-.66-7.66-6.11v-15.1h5.49c9.9,0,15.06-1.47,18.89-4.13,3.83-2.65,5.66-6.63,5.66-11.71s-2.25-8.84-5.82-11.35c-3.66-2.43-8.65-3.61-17.64-3.61h-23.47v3.02c6.16,0,6.74.59,6.74,6.04v36.84c0,5.38-.58,6.11-6.74,6.11v2.95ZM314.8,177.6v-19.23c0-3.54.25-4.27,2-4.27h3.58c4.91,0,13.98.51,13.98,11.57,0,7.74-3.83,11.94-14.06,11.94h-5.49ZM350.67,150.49v3.02c6.16,0,6.74.59,6.74,6.04v36.76c0,5.45-.58,6.19-6.74,6.19v2.95h23.13v-2.95c-5.83,0-6.24-.52-6.24-6.11v-15.91h5.83l15.15,24.98h13.9v-2.95c-3.41,0-4.83-.59-7.91-5.23l-11.57-18.05c9.24-1.55,14.23-7.52,14.23-14.29,0-5.01-2.25-8.47-5.99-10.83-4.24-2.73-9.32-3.61-17.31-3.61h-23.22ZM373.88,154.1c4.41,0,7.24.96,9.32,2.65,2.33,1.99,3.41,4.86,3.41,8.18,0,9.36-6.08,11.86-14.23,11.86h-4.83v-18.05c0-3.9.17-4.64,2.16-4.64h4.16ZM432.96,206.57c20.8,0,26.63-14.01,26.63-28.6,0-13.55-5.32-28.58-26.63-28.58-19.55,0-26.46,13.04-26.46,28.58,0,16.73,7.41,28.6,26.46,28.6M432.96,152.78c14.15,0,15.89,14.15,15.89,25.19,0,8.7-1.58,15.77-4.83,20.19-2.58,3.02-6.57,4.94-11.15,4.94-14.15,0-15.81-15.47-15.81-25.12,0-10.68,1.83-16.87,4.91-20.48,3.91-4.35,8.57-4.71,10.98-4.71M501.95,154.32c4.91,0,5.74.29,7.57,9.43h4.08l-2-13.26h-45.6l-2,13.26h4.16c1.75-9.06,2.5-9.43,7.49-9.43h8.07v42.07c0,5.45-.42,6.11-7.66,6.11v2.95h25.55v-2.95c-7.32,0-7.74-.66-7.74-6.11v-42.07h8.07ZM561.28,192.78h-4.33c-2.16,8.32-3.08,8.99-7.9,8.99h-12.48c-1.66,0-2.33-.29-2.33-3.31v-19.67h9.07c3.74,0,4.41.52,4.41,7.66h4.08v-18.86h-4.08c0,6.63-.75,7.51-4.49,7.51h-8.99v-17.53c0-2.87.25-3.46,3-3.46h9.65c4.66,0,5.57.44,7.74,8.62h4.33l-2.66-12.23h-38.94v3.02c6.07,0,6.74.59,6.74,6.04v36.84c0,5.38-.66,6.11-6.74,6.11v2.95h41.11l2.83-12.67ZM609.96,165.08c-.92-4.35-1.66-8.91-2.16-13.11-5.91-2.14-10.74-2.58-14.31-2.58-16.89,0-26.79,9.94-26.79,28.22s8.9,28.96,25.13,28.96c7.41,0,16.23-3.11,19.97-14.97l-4.16-.88c-1.75,5.16-5.74,11.71-14.15,11.71s-16.14-7.07-16.14-25.42c0-9.21,2.33-24.24,16.56-24.24,8.9,0,10.07,4.86,11.82,13.04l4.24-.74ZM661.8,165.08c-.91-4.35-1.66-8.91-2.16-13.11-5.91-2.14-10.73-2.58-14.31-2.58-16.89,0-26.79,9.94-26.79,28.22s8.9,28.96,25.13,28.96c7.41,0,16.23-3.11,19.97-14.97l-4.16-.88c-1.75,5.16-5.74,11.71-14.15,11.71s-16.14-7.07-16.14-25.42c0-9.21,2.33-24.24,16.56-24.24,8.9,0,10.07,4.86,11.82,13.04l4.24-.74ZM669.38,205.45h24.46v-2.95c-6.58,0-7.16-.74-7.16-6.11v-36.84c0-5.45.58-6.04,7.16-6.04v-3.02h-24.38v3.02c6.57,0,7.07.59,7.07,6.04v36.84c0,5.38-.5,6.11-7.15,6.11v2.95ZM721.14,144.53l1.66,2.94,18.72-6.63-3.16-5.9-17.22,9.58ZM726.54,206.57c20.8,0,26.63-14.01,26.63-28.6,0-13.55-5.33-28.58-26.63-28.58-19.55,0-26.46,13.04-26.46,28.58,0,16.73,7.41,28.6,26.46,28.6M726.54,152.78c14.15,0,15.89,14.15,15.89,25.19,0,8.7-1.58,15.77-4.83,20.19-2.58,3.02-6.57,4.94-11.15,4.94-14.15,0-15.81-15.47-15.81-25.12,0-10.68,1.83-16.87,4.91-20.48,3.91-4.35,8.57-4.71,10.98-4.71M759.42,150.49v3.02c5.91,0,6.49.44,6.49,5.97v36.91c0,5.45-.67,6.11-6.41,6.11v2.95h17.39v-2.95c-5.74,0-6.32-.66-6.32-6.11v-37.35h.17l29.62,47.16h7.16v-46.65c0-5.45.75-6.04,6.16-6.04v-3.02h-17.48v3.02c5.83,0,6.66.59,6.66,6.04v34.48h-.17l-27.21-43.54h-16.06ZM881.32,192.12c-2.33,8.91-3.16,9.65-8.24,9.65h-11.9c-2.16,0-2.75-.29-2.75-3.46v-38.6c0-5.67.42-6.19,6.82-6.19v-3.02h-23.71v3.02c6.07,0,6.74.59,6.74,6.04v36.76c0,5.45-.66,6.19-6.74,6.19v2.95h41.27l2.91-13.34h-4.41ZM933.91,192.78h-4.33c-2.16,8.32-3.08,8.99-7.91,8.99h-12.48c-1.67,0-2.33-.29-2.33-3.31v-19.67h9.07c3.74,0,4.41.52,4.41,7.66h4.08v-18.86h-4.08c0,6.63-.75,7.51-4.49,7.51h-8.99v-17.53c0-2.87.25-3.46,3-3.46h9.65c4.66,0,5.58.44,7.74,8.62h4.33l-2.66-12.23h-38.95v3.02c6.08,0,6.74.59,6.74,6.04v36.84c0,5.38-.66,6.11-6.74,6.11v2.95h41.11l2.83-12.67ZM982.76,164.93c-.83-4.42-1.58-8.62-2-12.89-4.24-1.55-8.74-2.65-13.56-2.65-18.56,0-27.87,12.38-27.87,28.51s8.07,28.67,25.54,28.67c7.57,0,14.48-2.81,18.89-6.57v-9.87c0-3.46.42-3.76,4.83-3.76v-3.02h-20.14v3.02c5.66,0,6.16.52,6.16,4.79v8.62c-2.08,1.55-4.91,2.95-8.9,2.95-10.57,0-15.73-11.86-15.73-25.34,0-15.47,6.99-24.61,16.73-24.61,8.74,0,10.15,4.49,11.82,12.82l4.24-.66ZM1028.03,197.64c.42,1.18.67,2.14.67,2.87,0,1.4-1.08,1.99-4.33,1.99v2.95h19.55v-2.95c-2.91,0-3.91-.81-5.57-5.23l-18.47-47.89h-5.99l-16.89,48.92c-1.25,3.39-2.33,4.2-5.16,4.2v2.95h14.06v-2.95c-3.08,0-4.24-.37-4.24-1.99,0-.81.33-2.06.83-3.68l2.58-8.32h19.72l3.25,9.14ZM1006.48,184.82l7.91-24.16h.25l8.82,24.16h-16.98ZM1087.45,192.12c-2.33,8.91-3.16,9.65-8.24,9.65h-11.9c-2.16,0-2.75-.29-2.75-3.46v-38.6c0-5.67.42-6.19,6.82-6.19v-3.02h-23.71v3.02c6.07,0,6.74.59,6.74,6.04v36.76c0,5.45-.67,6.19-6.74,6.19v2.95h41.27l2.91-13.34h-4.41Z"/>
  <path class="cls-2" d="M290.92,231.54l3.67-.28c.17,1.3.58,2.36,1.21,3.2.64.83,1.62,1.51,2.96,2.02,1.34.51,2.84.77,4.51.77,1.49,0,2.79-.19,3.93-.58,1.14-.39,1.99-.93,2.54-1.6.55-.68.84-1.42.84-2.22s-.27-1.52-.81-2.13c-.53-.61-1.42-1.12-2.64-1.53-.79-.27-2.53-.69-5.24-1.27-2.7-.57-4.6-1.11-5.68-1.62-1.4-.65-2.45-1.46-3.14-2.42-.68-.96-1.03-2.04-1.03-3.23,0-1.3.42-2.53,1.26-3.67.84-1.14,2.08-2.01,3.69-2.6,1.62-.59,3.42-.88,5.4-.88,2.18,0,4.1.31,5.78.93,1.66.62,2.94,1.53,3.84,2.73.89,1.2,1.38,2.57,1.45,4.09l-3.73.25c-.2-1.64-.88-2.88-2.04-3.72-1.16-.84-2.86-1.26-5.12-1.26s-4.07.38-5.15,1.14c-1.08.76-1.61,1.68-1.61,2.75,0,.94.38,1.7,1.14,2.3.75.6,2.71,1.22,5.87,1.85,3.16.63,5.34,1.18,6.52,1.66,1.71.7,2.98,1.58,3.79,2.65.82,1.07,1.22,2.3,1.22,3.69s-.45,2.68-1.34,3.9c-.9,1.22-2.18,2.17-3.86,2.85-1.68.68-3.57,1.01-5.66,1.01-2.67,0-4.9-.34-6.69-1.03-1.8-.68-3.21-1.71-4.24-3.09-1.02-1.37-1.56-2.93-1.61-4.67M333.78,233.83l3.73.4c-.59,1.93-1.68,3.42-3.27,4.48-1.6,1.06-3.63,1.59-6.1,1.59-3.12,0-5.59-.85-7.41-2.54-1.83-1.69-2.74-4.07-2.74-7.13s.92-5.62,2.77-7.37c1.85-1.75,4.24-2.62,7.18-2.62s5.18.86,6.98,2.57c1.81,1.71,2.71,4.12,2.71,7.22,0,.19,0,.48-.02.85h-15.89c.13,2.07.79,3.65,1.98,4.74,1.19,1.1,2.67,1.65,4.45,1.65,1.32,0,2.45-.31,3.39-.92.94-.61,1.68-1.59,2.23-2.94M321.92,228.67h11.9c-.16-1.58-.62-2.77-1.36-3.55-1.15-1.23-2.64-1.84-4.47-1.84-1.66,0-3.05.49-4.18,1.47-1.13.98-1.75,2.29-1.88,3.93M342.01,239.88v-18.8h3.24v2.85c.83-1.33,1.6-2.21,2.3-2.64.7-.42,1.47-.64,2.32-.64,1.22,0,2.45.34,3.71,1.03l-1.25,2.96c-.88-.47-1.76-.7-2.64-.7-.79,0-1.5.21-2.13.63-.63.42-1.08,1-1.34,1.75-.4,1.13-.6,2.37-.6,3.72v9.85h-3.61ZM361.66,239.88h3.37l8.07-18.8h-3.71l-4.74,11.47c-.58,1.4-1.02,2.59-1.34,3.58-.42-1.31-.87-2.58-1.36-3.79l-4.58-11.26h-3.82l8.11,18.8ZM376.3,213.92h3.62v3.67h-3.62v-3.67ZM376.3,221.08h3.62v18.8h-3.62v-18.8ZM399.32,232.99l3.55.41c-.38,2.16-1.38,3.85-2.98,5.07-1.6,1.22-3.56,1.83-5.89,1.83-2.91,0-5.26-.84-7.03-2.52-1.78-1.68-2.67-4.09-2.67-7.24,0-2.03.38-3.81,1.14-5.33.77-1.52,1.92-2.67,3.49-3.43,1.55-.76,3.25-1.14,5.08-1.14,2.32,0,4.21.52,5.68,1.55,1.47,1.03,2.42,2.5,2.84,4.4l-3.51.48c-.34-1.26-.93-2.21-1.78-2.85-.85-.63-1.88-.96-3.08-.96-1.82,0-3.3.57-4.44,1.73-1.14,1.15-1.71,2.97-1.71,5.46s.55,4.36,1.65,5.51c1.1,1.14,2.53,1.72,4.29,1.72,1.42,0,2.6-.39,3.55-1.15.95-.77,1.55-1.95,1.81-3.54M405.98,213.92h3.62v3.67h-3.62v-3.67ZM405.98,221.08h3.62v18.8h-3.62v-18.8ZM413.75,230.48c0-3.48,1.09-6.06,3.29-7.74,1.83-1.39,4.06-2.09,6.7-2.09,2.93,0,5.33.85,7.18,2.54,1.86,1.69,2.79,4.03,2.79,7.02,0,2.42-.41,4.33-1.23,5.71-.82,1.39-2.02,2.47-3.59,3.23-1.58.77-3.29,1.15-5.15,1.15-2.98,0-5.39-.84-7.23-2.53-1.84-1.69-2.76-4.12-2.76-7.3M417.46,230.48c0,2.41.6,4.21,1.79,5.41,1.19,1.2,2.69,1.8,4.49,1.8s3.29-.6,4.48-1.81c1.19-1.2,1.78-3.04,1.78-5.51,0-2.33-.6-4.09-1.79-5.29-1.2-1.2-2.68-1.79-4.47-1.79s-3.3.6-4.49,1.79c-1.19,1.19-1.79,2.99-1.79,5.4M463.19,239.88v-2.38c-1.35,1.87-3.34,2.8-5.96,2.8-1.7,0-3.26-.41-4.68-1.24-1.42-.82-2.53-1.98-3.32-3.46-.78-1.48-1.17-3.18-1.17-5.11s.36-3.58,1.06-5.11c.71-1.53,1.77-2.7,3.19-3.51,1.42-.81,3.01-1.23,4.76-1.23,1.28,0,2.43.24,3.42.72,1.01.48,1.82,1.1,2.45,1.87v-9.31h3.59v25.96h-3.35ZM451.78,230.49c0,2.41.58,4.21,1.73,5.4,1.15,1.19,2.51,1.79,4.08,1.79s2.92-.57,4.02-1.71c1.1-1.14,1.66-2.88,1.66-5.22,0-2.57-.56-4.46-1.68-5.66-1.12-1.21-2.51-1.81-4.16-1.81s-2.95.58-4.02,1.73c-1.08,1.16-1.62,2.98-1.62,5.47M486.81,233.83l3.73.4c-.59,1.93-1.68,3.42-3.27,4.48-1.6,1.06-3.63,1.59-6.1,1.59-3.12,0-5.59-.85-7.41-2.54-1.83-1.69-2.74-4.07-2.74-7.13s.92-5.62,2.77-7.37c1.85-1.75,4.24-2.62,7.18-2.62s5.18.86,6.98,2.57c1.81,1.71,2.71,4.12,2.71,7.22,0,.19,0,.48-.02.85h-15.89c.13,2.07.79,3.65,1.99,4.74,1.19,1.1,2.67,1.65,4.45,1.65,1.32,0,2.45-.31,3.39-.92.94-.61,1.68-1.59,2.23-2.94M474.95,228.67h11.9c-.16-1.58-.62-2.77-1.36-3.55-1.15-1.23-2.64-1.84-4.47-1.84-1.66,0-3.05.49-4.18,1.47-1.13.98-1.75,2.29-1.88,3.93M501.46,239.88l11.3-25.96h4.19l12.04,25.96h-4.44l-3.43-7.86h-12.3l-3.23,7.86h-4.14ZM509.95,229.22h9.98l-3.08-7.19c-.93-2.18-1.63-3.98-2.08-5.39-.38,1.67-.9,3.32-1.59,4.96l-3.23,7.61ZM539.53,237.03l.52,2.82c-1.01.19-1.92.28-2.72.28-1.32,0-2.33-.18-3.06-.55-.72-.36-1.22-.85-1.52-1.44-.3-.59-.45-1.85-.45-3.76v-10.82h-2.65v-2.48h2.65v-4.66l3.6-1.91v6.57h3.63v2.48h-3.63v10.99c0,.91.06,1.49.18,1.75.13.26.34.47.62.62.29.15.7.23,1.23.23.4,0,.93-.04,1.59-.13M557.65,233.83l3.73.4c-.59,1.93-1.68,3.42-3.27,4.48-1.59,1.06-3.63,1.59-6.1,1.59-3.12,0-5.59-.85-7.41-2.54-1.83-1.69-2.74-4.07-2.74-7.13s.92-5.62,2.77-7.37c1.85-1.75,4.24-2.62,7.18-2.62s5.18.86,6.98,2.57c1.81,1.71,2.71,4.12,2.71,7.22,0,.19,0,.48-.02.85h-15.89c.13,2.07.79,3.65,1.99,4.74,1.19,1.1,2.67,1.65,4.45,1.65,1.32,0,2.45-.31,3.39-.92.94-.61,1.68-1.59,2.23-2.94M545.79,228.67h11.9c-.16-1.58-.62-2.77-1.36-3.55-1.15-1.23-2.64-1.84-4.47-1.84-1.66,0-3.05.49-4.18,1.47-1.13.98-1.75,2.29-1.88,3.93M565.92,239.88v-18.8h3.25v2.67c1.57-2.07,3.83-3.1,6.78-3.1,1.29,0,2.47.21,3.54.61,1.08.41,1.88.94,2.42,1.61.54.66.91,1.45,1.13,2.35.13.59.2,1.62.2,3.1v11.56h-3.62v-11.44c0-1.29-.14-2.27-.42-2.91-.28-.64-.78-1.15-1.49-1.53-.72-.39-1.56-.58-2.52-.58-1.54,0-2.86.44-3.99,1.29-1.12.86-1.67,2.5-1.67,4.91v10.27h-3.61ZM602.68,232.99l3.55.41c-.38,2.16-1.38,3.85-2.98,5.07-1.6,1.22-3.56,1.83-5.89,1.83-2.91,0-5.26-.84-7.03-2.52-1.77-1.68-2.66-4.09-2.66-7.24,0-2.03.38-3.81,1.14-5.33.77-1.52,1.92-2.67,3.49-3.43,1.55-.76,3.25-1.14,5.08-1.14,2.31,0,4.21.52,5.68,1.55,1.47,1.03,2.42,2.5,2.84,4.4l-3.51.48c-.34-1.26-.93-2.21-1.78-2.85-.85-.63-1.88-.96-3.08-.96-1.82,0-3.3.57-4.44,1.73-1.14,1.15-1.71,2.97-1.71,5.46s.55,4.36,1.65,5.51c1.1,1.14,2.53,1.72,4.29,1.72,1.42,0,2.6-.39,3.55-1.15.95-.77,1.55-1.95,1.81-3.54M609.34,213.92h3.61v3.67h-3.61v-3.67ZM609.34,221.08h3.61v18.8h-3.61v-18.8ZM617.1,230.48c0-3.48,1.1-6.06,3.29-7.74,1.83-1.39,4.06-2.09,6.7-2.09,2.93,0,5.33.85,7.18,2.54,1.86,1.69,2.79,4.03,2.79,7.02,0,2.42-.41,4.33-1.23,5.71-.82,1.39-2.02,2.47-3.59,3.23-1.58.77-3.29,1.15-5.15,1.15-2.98,0-5.39-.84-7.23-2.53-1.84-1.69-2.76-4.12-2.76-7.3M620.82,230.48c0,2.41.6,4.21,1.79,5.41,1.19,1.2,2.69,1.8,4.49,1.8s3.29-.6,4.48-1.81c1.19-1.2,1.78-3.04,1.78-5.51,0-2.33-.6-4.09-1.8-5.29-1.2-1.2-2.68-1.79-4.47-1.79s-3.3.6-4.49,1.79c-1.19,1.19-1.79,2.99-1.79,5.4M625.09,218.74l2.67-4.96h4.74l-4.41,4.96h-2.99ZM641.31,239.88v-18.8h3.25v2.67c1.57-2.07,3.83-3.1,6.78-3.1,1.29,0,2.47.21,3.54.61,1.08.41,1.88.94,2.42,1.61.54.66.91,1.45,1.13,2.35.13.59.2,1.62.2,3.1v11.56h-3.62v-11.44c0-1.29-.14-2.27-.42-2.91-.28-.64-.78-1.15-1.49-1.53-.72-.39-1.55-.58-2.52-.58-1.54,0-2.86.44-3.99,1.29-1.12.86-1.67,2.5-1.67,4.91v10.27h-3.61ZM674.06,232.51l3.51-.42c.09,1.98.51,3.34,1.26,4.07.76.73,1.79,1.09,3.11,1.09.98,0,1.82-.19,2.53-.59.71-.39,1.2-.93,1.47-1.61.27-.68.4-1.76.4-3.25v-17.88h3.89v17.69c0,2.17-.3,3.86-.89,5.05-.59,1.19-1.54,2.1-2.83,2.73-1.29.62-2.81.94-4.55.94-2.58,0-4.55-.65-5.93-1.96-1.37-1.31-2.03-3.26-1.97-5.84M710.1,239.88v-2.76c-1.66,2.13-3.92,3.19-6.77,3.19-1.25,0-2.43-.21-3.52-.64-1.09-.42-1.9-.96-2.43-1.6-.53-.65-.9-1.43-1.12-2.36-.14-.63-.22-1.62-.22-2.98v-11.65h3.61v10.43c0,1.67.07,2.79.22,3.37.23.84.71,1.49,1.44,1.98.74.48,1.65.71,2.73.71s2.1-.24,3.05-.73c.95-.49,1.62-1.16,2.01-2,.4-.85.6-2.07.6-3.67v-10.08h3.61v18.8h-3.23ZM718.95,239.88v-18.8h3.25v2.85c.83-1.33,1.6-2.21,2.3-2.64.7-.42,1.47-.64,2.31-.64,1.22,0,2.45.34,3.71,1.03l-1.25,2.96c-.88-.47-1.76-.7-2.64-.7-.79,0-1.5.21-2.13.63-.63.42-1.08,1-1.34,1.75-.4,1.13-.6,2.37-.6,3.72v9.85h-3.61ZM733.93,221.08h3.61v18.8h-3.61v-18.8ZM733.75,218.74l2.67-4.96h4.73l-4.41,4.96h-2.99ZM757.92,239.88v-2.38c-1.35,1.87-3.34,2.8-5.96,2.8-1.7,0-3.26-.41-4.68-1.24-1.42-.82-2.53-1.98-3.32-3.46-.78-1.48-1.17-3.18-1.17-5.11s.36-3.58,1.06-5.11c.71-1.53,1.78-2.7,3.19-3.51,1.42-.81,3.01-1.23,4.76-1.23,1.28,0,2.42.24,3.42.72,1.01.48,1.82,1.1,2.45,1.87v-9.31h3.59v25.96h-3.35ZM746.5,230.49c0,2.41.57,4.21,1.73,5.4s2.51,1.79,4.08,1.79,2.92-.57,4.02-1.71c1.1-1.14,1.66-2.88,1.66-5.22,0-2.57-.56-4.46-1.68-5.66-1.12-1.21-2.51-1.81-4.16-1.81s-2.95.58-4.02,1.73c-1.08,1.16-1.62,2.98-1.62,5.47M766.96,213.92h3.62v3.67h-3.62v-3.67ZM766.96,221.08h3.62v18.8h-3.62v-18.8ZM789.98,232.99l3.55.41c-.38,2.16-1.38,3.85-2.98,5.07-1.59,1.22-3.56,1.83-5.89,1.83-2.91,0-5.26-.84-7.03-2.52-1.77-1.68-2.66-4.09-2.66-7.24,0-2.03.39-3.81,1.15-5.33.77-1.52,1.92-2.67,3.49-3.43,1.55-.76,3.26-1.14,5.08-1.14,2.32,0,4.21.52,5.68,1.55,1.47,1.03,2.42,2.5,2.84,4.4l-3.51.48c-.34-1.26-.92-2.21-1.77-2.85-.85-.63-1.88-.96-3.08-.96-1.82,0-3.3.57-4.44,1.73-1.14,1.15-1.71,2.97-1.71,5.46s.55,4.36,1.65,5.51c1.09,1.14,2.53,1.72,4.29,1.72,1.42,0,2.6-.39,3.55-1.15.95-.77,1.56-1.95,1.81-3.54M810.53,237.56c-1.34,1-2.63,1.71-3.86,2.13-1.24.41-2.57.62-3.99.62-2.34,0-4.14-.5-5.4-1.51-1.25-1.01-1.88-2.3-1.88-3.87,0-.93.23-1.77.71-2.53.47-.76,1.1-1.37,1.86-1.83.77-.46,1.64-.81,2.6-1.05.71-.16,1.77-.33,3.21-.48,2.92-.31,5.07-.67,6.45-1.1.01-.43.02-.71.02-.83,0-1.3-.34-2.22-1.03-2.74-.92-.73-2.29-1.08-4.11-1.08-1.7,0-2.95.26-3.77.79-.81.53-1.4,1.46-1.79,2.79l-3.53-.43c.32-1.33.85-2.41,1.58-3.23.73-.82,1.8-1.46,3.19-1.9,1.39-.44,3-.67,4.84-.67s3.29.19,4.43.57c1.14.38,1.98.85,2.51,1.43.54.57.91,1.29,1.12,2.17.12.54.18,1.52.18,2.94v4.25c0,2.97.08,4.84.23,5.62.15.79.46,1.54.91,2.26h-3.77c-.37-.66-.62-1.43-.72-2.32M810.23,230.44c-1.32.48-3.28.88-5.9,1.21-1.49.19-2.54.4-3.15.64-.62.24-1.1.58-1.42,1.04-.34.45-.51.96-.51,1.51,0,.85.37,1.56,1.09,2.13.73.56,1.79.85,3.2.85s2.63-.26,3.71-.8c1.08-.54,1.88-1.28,2.39-2.21.39-.72.58-1.78.58-3.19v-1.17ZM843.5,239.88h-3.61v-20.31c-.87.73-2.01,1.46-3.42,2.19-1.42.73-2.68,1.28-3.81,1.64v-3.08c2.02-.84,3.79-1.85,5.3-3.05,1.51-1.2,2.58-2.35,3.21-3.47h2.32v26.07ZM852.75,227.08c0-3.07.35-5.54,1.08-7.41.71-1.87,1.78-3.32,3.19-4.33,1.41-1.01,3.18-1.52,5.32-1.52,1.58,0,2.97.28,4.16.85,1.19.56,2.17,1.37,2.95,2.42.77,1.06,1.38,2.35,1.82,3.86.44,1.52.66,3.56.66,6.13,0,3.05-.36,5.5-1.06,7.37-.71,1.88-1.77,3.32-3.18,4.34-1.41,1.02-3.19,1.53-5.35,1.53-2.84,0-5.06-.89-6.68-2.69-1.94-2.16-2.91-5.68-2.91-10.55M856.46,227.08c0,4.26.57,7.1,1.7,8.51,1.13,1.41,2.52,2.12,4.18,2.12s3.06-.71,4.18-2.13c1.13-1.41,1.7-4.25,1.7-8.5s-.57-7.11-1.7-8.52c-1.13-1.41-2.53-2.11-4.22-2.11s-2.99.62-3.98,1.86c-1.24,1.58-1.86,4.5-1.86,8.76M875.61,227.08c0-3.07.35-5.54,1.07-7.41.71-1.87,1.78-3.32,3.19-4.33,1.41-1.01,3.18-1.52,5.32-1.52,1.58,0,2.97.28,4.16.85,1.19.56,2.17,1.37,2.95,2.42.77,1.06,1.39,2.35,1.82,3.86.44,1.52.66,3.56.66,6.13,0,3.05-.36,5.5-1.06,7.37-.71,1.88-1.77,3.32-3.18,4.34-1.41,1.02-3.19,1.53-5.35,1.53-2.84,0-5.06-.89-6.68-2.69-1.94-2.16-2.91-5.68-2.91-10.55M879.32,227.08c0,4.26.57,7.1,1.7,8.51,1.13,1.41,2.52,2.12,4.18,2.12s3.05-.71,4.18-2.13c1.13-1.41,1.7-4.25,1.7-8.5s-.57-7.11-1.7-8.52c-1.13-1.41-2.54-2.11-4.22-2.11s-2.99.62-3.98,1.86c-1.24,1.58-1.86,4.5-1.86,8.76M899.15,220.15c0-1.85.53-3.43,1.58-4.73,1.05-1.3,2.59-1.95,4.6-1.95,1.85,0,3.38.58,4.58,1.74,1.21,1.17,1.82,2.88,1.82,5.13s-.62,3.89-1.84,5.07c-1.22,1.19-2.73,1.78-4.52,1.78s-3.26-.58-4.44-1.75c-1.18-1.17-1.77-2.93-1.77-5.3M905.43,215.67c-.9,0-1.64.34-2.24,1.03-.6.68-.89,1.94-.89,3.77,0,1.66.3,2.83.9,3.52.6.68,1.35,1.01,2.23,1.01s1.66-.34,2.25-1.03c.6-.68.9-1.93.9-3.75,0-1.67-.3-2.85-.9-3.53-.6-.68-1.36-1.02-2.25-1.02M905.45,240.84h2.99l16.03-27.36h-2.93l-16.09,27.36ZM918.17,233.79c0-1.86.53-3.45,1.58-4.74,1.06-1.29,2.6-1.93,4.61-1.93,1.85,0,3.38.58,4.59,1.74,1.2,1.17,1.82,2.87,1.82,5.12s-.62,3.89-1.84,5.08c-1.23,1.19-2.74,1.78-4.55,1.78s-3.26-.59-4.45-1.76c-1.19-1.18-1.77-2.94-1.77-5.29M924.47,229.31c.9,0,1.64.34,2.25,1.01.6.68.9,1.86.9,3.54,0,1.82-.3,3.07-.9,3.75-.59.68-1.35,1.03-2.27,1.03s-1.62-.34-2.23-1.03c-.6-.68-.91-1.85-.91-3.51,0-1.83.29-3.09.89-3.77.6-.68,1.35-1.03,2.26-1.03M947.97,239.88v-25.96h21.27v3.07h-17.38v7.95h16.27v3.05h-16.27v8.84h18.06v3.06h-21.95ZM972.43,239.88l7.79-9.77-7.2-9.03h4.51l3.27,4.41c.61.84,1.11,1.54,1.48,2.11.59-.78,1.13-1.47,1.63-2.07l3.59-4.44h4.32l-7.36,8.85,7.92,9.95h-4.43l-4.38-5.84-1.16-1.58-5.6,7.42h-4.38ZM995.39,247.09v-26.01h3.29v2.44c.77-.95,1.65-1.67,2.63-2.15.97-.48,2.16-.72,3.55-.72,1.82,0,3.42.42,4.81,1.24,1.4.83,2.45,1.99,3.15,3.5.71,1.51,1.07,3.16,1.07,4.95,0,1.92-.39,3.66-1.18,5.2-.78,1.54-1.92,2.72-3.41,3.54-1.49.82-3.06,1.23-4.71,1.23-1.21,0-2.28-.23-3.24-.67-.96-.45-1.74-1.02-2.35-1.7v9.15h-3.61ZM998.66,230.59c0,2.42.56,4.21,1.66,5.37,1.11,1.15,2.46,1.73,4.04,1.73s2.98-.6,4.12-1.8c1.14-1.2,1.72-3.05,1.72-5.57s-.56-4.19-1.68-5.39c-1.12-1.19-2.45-1.79-4-1.79s-2.91.64-4.09,1.91c-1.18,1.27-1.77,3.12-1.77,5.54M1032.83,233.83l3.73.4c-.59,1.93-1.68,3.42-3.27,4.48-1.6,1.06-3.63,1.59-6.1,1.59-3.12,0-5.59-.85-7.41-2.54-1.83-1.69-2.74-4.07-2.74-7.13s.92-5.62,2.77-7.37c1.85-1.75,4.24-2.62,7.19-2.62s5.18.86,6.98,2.57c1.81,1.71,2.71,4.12,2.71,7.22,0,.19,0,.48-.02.85h-15.89c.13,2.07.79,3.65,1.98,4.74,1.19,1.1,2.67,1.65,4.45,1.65,1.32,0,2.45-.31,3.39-.92.94-.61,1.68-1.59,2.23-2.94M1020.97,228.67h11.9c-.16-1.58-.62-2.77-1.36-3.55-1.15-1.23-2.64-1.84-4.47-1.84-1.66,0-3.06.49-4.19,1.47-1.13.98-1.75,2.29-1.88,3.93M1041.06,239.88v-18.8h3.25v2.85c.83-1.33,1.6-2.21,2.3-2.64.7-.42,1.47-.64,2.31-.64,1.22,0,2.45.34,3.71,1.03l-1.25,2.96c-.88-.47-1.76-.7-2.64-.7-.79,0-1.5.21-2.13.63-.63.42-1.07,1-1.34,1.75-.41,1.13-.6,2.37-.6,3.72v9.85h-3.61ZM1062.67,237.03l.52,2.82c-1.01.19-1.92.28-2.72.28-1.32,0-2.33-.18-3.06-.55-.72-.36-1.23-.85-1.52-1.44-.3-.59-.44-1.85-.44-3.76v-10.82h-2.65v-2.48h2.65v-4.66l3.59-1.91v6.57h3.63v2.48h-3.63v10.99c0,.91.06,1.49.18,1.75.13.26.34.47.62.62.29.15.7.23,1.23.23.4,0,.93-.04,1.59-.13M1064.86,230.48c0-3.48,1.1-6.06,3.29-7.74,1.83-1.39,4.06-2.09,6.7-2.09,2.93,0,5.33.85,7.18,2.54,1.86,1.69,2.79,4.03,2.79,7.02,0,2.42-.41,4.33-1.23,5.71-.82,1.39-2.02,2.47-3.59,3.23-1.57.77-3.29,1.15-5.15,1.15-2.98,0-5.39-.84-7.23-2.53-1.84-1.69-2.76-4.12-2.76-7.3M1068.57,230.48c0,2.41.6,4.21,1.79,5.41,1.19,1.2,2.69,1.8,4.49,1.8s3.29-.6,4.48-1.81c1.18-1.2,1.78-3.04,1.78-5.51,0-2.33-.6-4.09-1.8-5.29-1.2-1.2-2.68-1.79-4.46-1.79s-3.3.6-4.49,1.79c-1.19,1.19-1.79,2.99-1.79,5.4"/>
  <path class="cls-1" d="M56.13,216.15c-28.58-37.51-14.71-96.12,30.87-130.48,45.58-34.36,106.07-31.8,134.64,5.71,28.58,37.5,14.71,96.12-30.87,130.48-45.58,34.36-106.07,31.8-134.64-5.71M56.07,216.2c25.63,33.63,83.69,33.05,129.25-1.3,45.56-34.35,61.82-89.79,36.19-123.43-25.63-33.63-83.69-33.05-129.25,1.3-45.56,34.35-61.82,89.79-36.19,123.43M56.17,216.12c16.19,21.25,66.53,10.58,112.07-23.75,45.53-34.33,69.47-79.65,53.28-100.9-16.19-21.25-66.53-10.58-112.07,23.75-45.53,34.33-69.47,79.65-53.28,100.9M56.17,216.12c12.43,16.32,59.71,1.63,105.25-32.7,45.53-34.33,72.53-75.63,60.1-91.95-12.43-16.32-59.71-1.63-105.25,32.7-45.54,34.33-72.53,75.64-60.1,91.95M57.93,218.43c.52.68,1.48.83,2.14.33l162.69-122.64c.66-.5.77-1.46.26-2.14l-3.52-4.62c-.52-.68-1.48-.83-2.14-.33L54.66,211.68c-.66.5-.78,1.46-.26,2.14l3.52,4.62ZM74.94,70.56c-45.69,34.45-54.17,100.32-18.88,146.64,35.29,46.32,101.35,56,147.04,21.55,45.69-34.45,54.17-100.32,18.88-146.64-35.29-46.32-101.35-56-147.04-21.55M74.95,70.58c-37.03,27.92-38.42,88.5-3.09,134.87,35.33,46.37,94.35,61.41,131.38,33.5,37.03-27.92,38.42-88.5,3.09-134.87-35.33-46.37-94.35-61.42-131.38-33.5M74.9,70.51c-33.21,25.03-31.49,83.26,3.83,129.6,35.32,46.35,91.21,63.73,124.42,38.7,33.21-25.03,31.49-83.26-3.83-129.6-35.32-46.35-91.21-63.73-124.42-38.7M74.98,70.61c-20.98,15.82-9.3,66.49,25.99,112.82,35.3,46.32,81.19,71.2,102.17,55.39,20.98-15.81,9.3-66.49-25.99-112.81-35.29-46.32-81.19-71.2-102.17-55.39M74.98,70.61c-16.11,12.15-.47,59.83,34.83,106.16,35.3,46.32,77.22,74.19,93.34,62.05,16.11-12.15.47-59.83-34.83-106.15-35.29-46.32-77.22-74.2-93.34-62.05M72.7,72.33c-.67.5-.8,1.47-.29,2.14l126.1,165.5c.51.67,1.48.81,2.15.3l4.56-3.44c.67-.51.8-1.47.29-2.14L79.4,69.19c-.51-.67-1.48-.8-2.15-.3l-4.56,3.44Z"/>
  <path class="cls-3" d="M42.82,243.35l4.13-4.8.29.31c-.93,1.75-1.32,3.3-1.18,4.65.15,1.35.73,2.55,1.75,3.61.85.89,1.84,1.46,2.97,1.74,1.13.27,2.37.12,3.72-.44,1.35-.56,2.74-1.57,4.17-3.02,1.18-1.2,2.01-2.43,2.5-3.69.49-1.27.59-2.52.3-3.77-.29-1.25-.91-2.37-1.88-3.37-.83-.87-1.75-1.45-2.75-1.75-1-.3-2.42-.3-4.26,0l-.1-.5c1.8-.5,3.4-.58,4.8-.24,1.4.35,2.69,1.14,3.87,2.36,2.13,2.21,2.98,4.74,2.56,7.58-.32,2.11-1.28,3.99-2.89,5.63-1.3,1.32-2.78,2.23-4.44,2.74-1.66.51-3.3.54-4.9.1-1.61-.44-3.01-1.28-4.2-2.52-.93-.97-1.62-2.15-2.06-3.56-.12-.42-.24-.69-.36-.8-.17-.18-.38-.27-.63-.28-.34,0-.69.12-1.07.37l-.33-.34Z"/>
  <path class="cls-3" d="M37.94,234.59l5.86-4.35-2.35-3.35c-.61-.87-1.15-1.35-1.61-1.46-.61-.14-1.35.08-2.23.66l-.29-.42,5.17-3.83.29.42c-.65.64-1.04,1.09-1.17,1.34-.16.32-.21.69-.14,1.11.07.42.33.94.78,1.58l2.35,3.35,4.89-3.62c.66-.49,1.03-.81,1.13-.98.1-.16.14-.35.12-.57-.02-.21-.18-.53-.47-.95l-1.82-2.59c-.61-.86-1.1-1.44-1.49-1.75-.39-.3-.88-.51-1.48-.61-.78-.13-1.79-.1-3.05.09l-.32-.45,4.64-1.44,8.25,11.75-.4.3-.38-.54c-.25-.36-.58-.64-.97-.84-.29-.15-.57-.19-.87-.1-.29.09-.8.4-1.53.93l-9.64,7.14c-.94.7-1.45,1.22-1.53,1.58-.1.49.07,1.05.51,1.67l.38.54-.4.3-8.25-11.75,3.13-2.58.31.44c-.67.73-1.08,1.3-1.24,1.71-.16.41-.18.85-.07,1.34.1.38.42.95.95,1.71l2.94,4.18Z"/>
  <path class="cls-3" d="M29.53,224.37l-2.22-4.56,7.28-16.58-9.44,4.84c-1.01.52-1.58.95-1.71,1.31-.19.48-.12,1.05.2,1.71l.28.58-.45.23-2.84-5.85.45-.23.29.59c.34.71.8,1.11,1.36,1.19.35.05.98-.16,1.89-.63l13.8-7.08.22.44-7.79,17.85,10.08-5.17c1.01-.52,1.58-.95,1.72-1.3.18-.49.12-1.06-.2-1.71l-.29-.59.45-.23,2.85,5.85-.45.23-.28-.58c-.35-.72-.81-1.12-1.37-1.2-.34-.05-.98.16-1.89.63l-11.38,5.84c-.32.77-.5,1.33-.56,1.67-.06.34-.04.8.04,1.36.04.28.19.66.42,1.15l-.45.23Z"/>
  <path class="cls-3" d="M14.97,187.84l4.03-1.51.15.5c-.69.33-1.17.63-1.42.89-.41.44-.67.92-.77,1.44-.1.53-.03,1.17.19,1.91l.77,2.53,13.34-4.29c1.07-.35,1.71-.68,1.9-1,.26-.45.28-1.03.07-1.72l-.19-.62.48-.15,2.32,7.61-.48.15-.19-.64c-.23-.76-.62-1.22-1.16-1.4-.33-.1-.99,0-1.97.31l-13.34,4.28.66,2.16c.25.84.5,1.41.72,1.73.3.41.74.7,1.3.87.56.18,1.25.17,2.06-.02l.15.5-4.16,1.1-4.46-14.65Z"/>
  <path class="cls-3" d="M29.45,163.09l.73,4.96-7.53,7.61c.09.46.15.84.2,1.13.02.12.03.24.05.39.02.14.03.28.04.43l5.25-.82c1.14-.18,1.83-.42,2.07-.71.34-.41.46-.96.36-1.65l-.11-.73.49-.08,1.18,7.97-.49.08-.1-.7c-.11-.79-.45-1.31-.99-1.57-.3-.15-.97-.14-2,.02l-11.68,1.82c-1.14.18-1.83.42-2.06.72-.34.42-.46.98-.35,1.68l.1.7-.49.08-1-6.77c-.29-1.98-.37-3.45-.22-4.43.14-.98.54-1.85,1.19-2.62.65-.77,1.5-1.24,2.54-1.4,1.11-.17,2.13.05,3.06.67.93.62,1.68,1.68,2.25,3.19l4.62-4.65c1.06-1.06,1.74-1.94,2.04-2.63.3-.69.43-1.55.38-2.58l.49-.08ZM22.1,177.74c-.03-.17-.05-.32-.06-.45-.01-.13-.03-.24-.04-.32-.26-1.77-.83-3.05-1.71-3.83-.88-.78-1.9-1.09-3.06-.9-1.13.18-1.99.68-2.59,1.52-.6.84-.81,1.85-.63,3.05.08.53.27,1.23.57,2.11l7.52-1.17Z"/>
  <path class="cls-3" d="M10.94,153.36c.04-2.44.98-4.54,2.81-6.29,1.83-1.75,4.1-2.61,6.8-2.56,2.78.05,5.07.99,6.87,2.83,1.8,1.84,2.68,4.03,2.64,6.59-.04,2.59-.98,4.74-2.8,6.47-1.82,1.73-4.15,2.57-6.99,2.51-2.9-.05-5.26-1.11-7.06-3.18-1.56-1.79-2.32-3.92-2.28-6.38M11.92,153.65c-.03,1.68.55,3.04,1.75,4.08,1.49,1.29,3.69,1.97,6.6,2.02,2.99.05,5.29-.56,6.93-1.84,1.24-.99,1.87-2.3,1.9-3.96.03-1.76-.61-3.23-1.93-4.41-1.32-1.18-3.42-1.79-6.31-1.84-3.13-.06-5.47.53-7.03,1.77-1.24.99-1.88,2.39-1.91,4.18"/>
  <path class="cls-3" d="M14.16,130.85l-.49-.11,1.66-7.87.49.11-.14.67c-.16.75-.06,1.34.3,1.78.24.28.89.54,1.96.78l8.74,1.94c1.35.3,2.4.69,3.18,1.18.77.49,1.39,1.17,1.85,2.05.46.88.59,1.84.37,2.89-.18.85-.53,1.47-1.04,1.87-.51.4-1.03.54-1.56.42-.43-.09-.73-.28-.9-.55-.21-.36-.27-.74-.19-1.13.06-.29.21-.53.44-.72.23-.19.79-.37,1.66-.54.52-.1.81-.32.88-.64.05-.24-.05-.5-.29-.78-.25-.28-.74-.5-1.47-.66l-12.21-2.72c-.9-.2-1.51-.28-1.83-.22-.24.04-.47.19-.69.44-.29.34-.48.73-.58,1.16l-.14.66Z"/>
  <path class="cls-3" d="M20.53,108.24l-.47-.17,2.2-6.26.47.17-.23.67c-.24.69-.15,1.33.29,1.92.2.28.78.6,1.73.95l6.98,2.59c1.73.64,3,1.31,3.83,2.02.83.71,1.4,1.7,1.72,2.98.32,1.28.17,2.81-.46,4.58-.68,1.93-1.52,3.27-2.52,4.03-1,.76-2.13,1.14-3.37,1.15-.85,0-2.31-.39-4.39-1.16l-6.72-2.5c-1.06-.39-1.8-.5-2.24-.32-.44.18-.77.6-1.01,1.27l-.23.67-.47-.17,2.69-7.64.47.17-.24.68c-.26.73-.22,1.33.12,1.81.23.33.82.68,1.79,1.03l7.5,2.79c.67.25,1.46.47,2.36.67.91.19,1.66.22,2.26.07.6-.15,1.16-.48,1.69-.99.53-.51.96-1.21,1.28-2.11.41-1.16.53-2.28.36-3.38-.17-1.09-.58-1.95-1.23-2.57-.65-.62-1.89-1.27-3.71-1.95l-6.97-2.59c-1.07-.4-1.79-.53-2.15-.38-.49.2-.86.64-1.09,1.3l-.23.66Z"/>
  <path class="cls-3" d="M48.49,91.91l-2.4,4.37-10.49,1.22c-.21.42-.39.76-.53,1.02-.06.1-.12.22-.19.34-.07.12-.14.24-.22.36l4.63,2.68c1,.58,1.69.83,2.05.74.51-.11.94-.46,1.27-1.08l.35-.64.43.25-3.85,7.01-.43-.25.34-.61c.38-.69.43-1.31.16-1.87-.15-.31-.68-.73-1.59-1.25l-10.29-5.97c-1-.58-1.69-.83-2.05-.74-.52.11-.95.48-1.29,1.1l-.34.62-.43-.25,3.28-5.96c.95-1.74,1.78-2.95,2.48-3.63.7-.68,1.54-1.12,2.52-1.31.98-.19,1.93-.02,2.84.51.98.57,1.65,1.39,2.01,2.46.36,1.07.31,2.38-.15,3.93l6.43-.73c1.47-.16,2.54-.43,3.18-.78.65-.36,1.27-.95,1.85-1.79l.44.25ZM33.92,98.79c.08-.15.16-.28.22-.39.06-.11.12-.2.16-.28.86-1.56,1.18-2.93.95-4.1-.22-1.17-.84-2.06-1.86-2.65-1-.58-1.98-.73-2.95-.45-.97.28-1.75.95-2.33,2-.26.47-.53,1.14-.82,2.02l6.63,3.84Z"/>
  <path class="cls-3" d="M33.29,71.69l1.4,6.13-.27.38-2.91-4,1.79-2.5ZM52.96,85.39l.4.3-4.64,6.49-.4-.3.38-.54c.45-.63.59-1.21.44-1.77-.1-.35-.6-.86-1.48-1.53l-9.53-7.19c-.75-.56-1.27-.89-1.58-.97-.23-.06-.5-.03-.79.1-.41.2-.74.47-1,.83l-.38.54-.4-.3,4.64-6.49.4.3-.39.55c-.44.62-.59,1.2-.44,1.75.1.36.59.88,1.48,1.55l9.52,7.19c.75.56,1.28.89,1.58.97.23.06.5.02.8-.12.4-.19.73-.46.99-.82l.39-.55Z"/>
  <path class="cls-3" d="M53.47,84.99l-.36-.35.47-.51c.53-.58.73-1.16.6-1.75-.08-.36-.49-.9-1.24-1.64l-8.56-8.37c-.83-.81-1.43-1.22-1.82-1.24-.53-.02-1.03.23-1.51.74l-.47.51-.36-.35,5.13-5.54c1.89-2.03,3.54-3.36,4.98-3.98,1.43-.62,2.97-.74,4.62-.36,1.65.38,3.16,1.24,4.53,2.59,1.84,1.8,2.85,3.89,3.02,6.25.18,2.64-.95,5.29-3.4,7.93l-5.64,6.08ZM56.11,80.17c.97-.67,1.72-1.29,2.26-1.87,1.44-1.55,2.1-3.36,1.99-5.42-.11-2.06-1.08-3.98-2.9-5.76-1.83-1.79-3.75-2.69-5.75-2.7-2,0-3.75.79-5.24,2.4-.56.6-1.1,1.38-1.62,2.33l11.27,11.02Z"/>
  <path class="cls-3" d="M73,65.24l.31.4-6.08,5.08-.31-.4.5-.42c.59-.49.87-1.02.86-1.59-.01-.37-.37-.99-1.06-1.87l-7.46-9.42c-.58-.74-1.01-1.19-1.29-1.35-.21-.12-.48-.16-.8-.11-.44.08-.83.27-1.17.55l-.5.42-.32-.4,6.08-5.08.32.4-.51.43c-.58.48-.86,1.01-.85,1.58,0,.38.36,1,1.05,1.88l7.46,9.42c.58.74,1.01,1.19,1.29,1.35.21.12.48.15.81.09.44-.08.82-.26,1.16-.54l.51-.43Z"/>
  <path class="cls-3" d="M77.36,39.92l3.66,5.18-.35.23c-1.46-1.31-2.85-2.05-4.16-2.19-1.31-.15-2.58.17-3.81.97-1.03.66-1.79,1.53-2.3,2.6-.5,1.07-.63,2.35-.39,3.83.24,1.48.9,3.09,1.96,4.84.88,1.44,1.87,2.54,2.96,3.31,1.1.77,2.27,1.14,3.51,1.12,1.25-.02,2.45-.41,3.61-1.15,1-.65,1.76-1.44,2.26-2.38.5-.94.81-2.36.92-4.27h.5c.09,1.93-.18,3.55-.82,4.87-.63,1.32-1.66,2.45-3.09,3.37-2.57,1.66-5.15,1.97-7.76.92-1.94-.78-3.51-2.15-4.72-4.12-.97-1.59-1.52-3.27-1.64-5.05-.12-1.78.2-3.42.97-4.94.77-1.52,1.87-2.74,3.31-3.67,1.12-.72,2.4-1.15,3.83-1.29.43-.03.71-.1.84-.18.21-.13.34-.32.4-.57.07-.34.03-.72-.12-1.15l.4-.26Z"/>
  <path class="cls-3" d="M90.32,33.77c2.19-.93,4.44-.89,6.74.14,2.3,1.03,3.96,2.82,5,5.38,1.06,2.64,1.14,5.17.22,7.6-.92,2.43-2.53,4.14-4.83,5.12-2.33.99-4.62.98-6.89-.05-2.27-1.02-3.95-2.89-5.03-5.58-1.11-2.76-1.11-5.4.02-7.92.98-2.19,2.57-3.75,4.78-4.69M90.46,34.8c-1.51.64-2.49,1.74-2.94,3.28-.56,1.92-.28,4.26.84,7.03,1.14,2.83,2.61,4.76,4.41,5.79,1.37.77,2.8.84,4.29.21,1.59-.68,2.64-1.87,3.16-3.58.52-1.71.23-3.94-.88-6.68-1.2-2.97-2.66-4.94-4.39-5.92-1.38-.77-2.88-.81-4.49-.13"/>
  <path class="cls-3" d="M120.8,43.99l.1.5-7.67,1.66-.1-.5.63-.14c.74-.16,1.23-.5,1.47-1.01.15-.34.11-1.05-.11-2.16l-2.43-11.88c-.19-.93-.38-1.54-.55-1.81-.14-.21-.36-.36-.66-.47-.43-.13-.86-.15-1.28-.06l-.63.14-.1-.5,7.67-1.66.1.5-.65.14c-.73.16-1.22.49-1.46,1.01-.16.34-.13,1.06.1,2.16l2.43,11.88c.19.93.37,1.54.55,1.81.13.21.36.36.67.46.42.14.85.16,1.27.06l.65-.14Z"/>
  <path class="cls-3" d="M119.1,25.38l4.95-.41,12.25,13.13-.85-10.8c-.09-1.15-.27-1.86-.54-2.12-.36-.36-.9-.51-1.62-.45l-.63.05-.04-.51,6.35-.52.04.51-.65.05c-.77.06-1.3.35-1.58.86-.18.31-.22.99-.14,2.04l1.24,15.79-.48.04-13.21-14.09.9,11.54c.09,1.15.27,1.86.53,2.13.37.36.91.51,1.62.45l.65-.05.04.51-6.35.53-.04-.51.63-.05c.78-.06,1.31-.35,1.6-.85.17-.31.22-.99.14-2.04l-1.02-13.03c-.58-.59-1.01-.98-1.3-1.16-.29-.18-.71-.33-1.25-.47-.27-.06-.66-.07-1.19-.03l-.04-.51Z"/>
  <path class="cls-3" d="M157.54,25.17l-.15,4.41-.51-.04c-.04-.78-.13-1.35-.27-1.69-.24-.56-.57-.98-1.01-1.27-.44-.29-1.04-.47-1.79-.53l-2.57-.22-1.14,14.31c-.09,1.15-.03,1.88.19,2.19.31.42.82.65,1.53.71l.63.05-.04.51-7.73-.65.04-.51.65.06c.77.06,1.34-.13,1.7-.58.22-.28.37-.94.46-1.99l1.14-14.31-2.19-.18c-.85-.07-1.46-.06-1.83.04-.48.14-.9.44-1.28.91-.37.47-.62,1.12-.75,1.97l-.51-.04.56-4.38,14.89,1.25Z"/>
  <path class="cls-3" d="M165.85,27.91l-1.65,7.24,3.92.94c1.02.24,1.73.25,2.14.02.55-.3.97-.97,1.26-2l.49.12-1.45,6.37-.49-.12c.08-.92.09-1.52.02-1.8-.09-.35-.29-.66-.61-.93-.32-.27-.85-.49-1.59-.67l-3.92-.94-1.37,6.03c-.18.81-.26,1.31-.23,1.5.03.19.12.36.27.51.15.15.47.28.96.39l3.02.72c1.01.24,1.76.34,2.24.31.49-.03.99-.21,1.51-.53.67-.43,1.42-1.14,2.24-2.12l.53.13-2.58,4.22-13.73-3.29.11-.5.63.15c.42.1.84.09,1.27-.02.31-.08.55-.25.72-.51.17-.26.35-.84.55-1.73l2.7-11.89c.26-1.16.31-1.9.15-2.23-.23-.44-.72-.74-1.45-.92l-.63-.15.11-.5,13.73,3.29-.71,4.06-.51-.12c.03-1.01-.02-1.72-.16-2.13-.14-.41-.41-.77-.81-1.06-.32-.22-.92-.43-1.81-.65l-4.89-1.17Z"/>
  <path class="cls-3" d="M189.42,54.72l-4.53-1.88-2.54-10.53c-.43-.16-.78-.3-1.05-.41-.11-.05-.23-.1-.35-.15-.12-.05-.25-.11-.38-.18l-1.99,5.07c-.43,1.1-.58,1.83-.45,2.19.17.51.57.89,1.21,1.16l.66.27-.19.48-7.27-3.01.19-.48.64.26c.72.3,1.32.27,1.82-.08.28-.19.62-.79,1-1.78l4.42-11.26c.43-1.1.58-1.83.45-2.19-.18-.51-.59-.9-1.23-1.17l-.64-.26.19-.48,6.18,2.56c1.8.75,3.08,1.43,3.83,2.06.75.62,1.28,1.42,1.59,2.39.31.97.27,1.96-.12,2.96-.42,1.07-1.12,1.86-2.11,2.37-.99.51-2.26.63-3.82.36l1.54,6.45c.35,1.48.74,2.53,1.17,3.14.43.61,1.08,1.17,1.97,1.65l-.19.47ZM180.88,40.77c.16.07.29.12.41.18.11.05.21.1.28.13,1.62.67,2.98.82,4.08.44,1.1-.38,1.88-1.12,2.31-2.24.43-1.09.44-2.11.05-3.07-.4-.96-1.14-1.66-2.23-2.11-.48-.2-1.17-.39-2.06-.57l-2.85,7.25Z"/>
  <path class="cls-3" d="M197.81,38.01l4.23,2.67,2.37,18.03,5.51-9.24c.59-.99.85-1.67.78-2.05-.09-.51-.44-.96-1.05-1.34l-.54-.34.26-.44,5.43,3.42-.26.44-.55-.35c-.66-.42-1.25-.5-1.77-.27-.32.15-.75.67-1.28,1.57l-8.06,13.51-.41-.26-2.59-19.38-5.89,9.87c-.59.99-.85,1.67-.79,2.04.09.51.44.96,1.05,1.34l.55.35-.26.44-5.43-3.42.26-.44.54.34c.67.42,1.26.51,1.78.28.32-.15.75-.67,1.28-1.57l6.65-11.15c-.13-.83-.26-1.4-.39-1.72-.13-.32-.38-.7-.74-1.13-.18-.21-.5-.46-.95-.75l.26-.44Z"/>
  <path class="cls-3" d="M218.51,68.36l-5.31-4.82-2.84,1.38c-.7.34-1.17.65-1.4.91-.18.22-.25.5-.19.84.06.34.4.84,1.02,1.49l-.33.38-4.32-3.92.33-.39c.66.42,1.15.62,1.46.61.63-.02,1.59-.35,2.88-.99l14.79-7.22.35.32-5.3,16.05c-.43,1.29-.6,2.22-.53,2.78.07.56.37,1.12.9,1.66l-.33.38-5.41-4.91.33-.38c.57.47,1.02.71,1.35.72.33.02.59-.09.79-.32.26-.31.54-.91.84-1.81l.91-2.78ZM218.89,67.34l2.57-7.8-7.28,3.53,4.71,4.27Z"/>
  <path class="cls-3" d="M244.39,78.77l-4.58,4.35-.26-.33c1.1-1.65,1.64-3.15,1.63-4.5-.01-1.36-.47-2.61-1.39-3.77-.76-.97-1.69-1.65-2.79-2.04-1.1-.38-2.35-.37-3.75.06-1.4.42-2.89,1.28-4.45,2.57-1.29,1.07-2.24,2.21-2.85,3.42-.61,1.21-.83,2.45-.67,3.72.16,1.27.68,2.45,1.54,3.54.75.95,1.6,1.62,2.57,2.02.97.4,2.38.54,4.24.44l.05.51c-1.84.32-3.44.23-4.8-.26-1.36-.49-2.56-1.41-3.62-2.75-1.9-2.42-2.51-5.03-1.8-7.81.52-2.07,1.67-3.84,3.43-5.3,1.42-1.18,2.98-1.94,4.69-2.27,1.7-.33,3.33-.2,4.89.41,1.55.6,2.87,1.58,3.94,2.94.83,1.06,1.4,2.31,1.7,3.75.08.43.18.71.28.84.15.19.35.31.6.34.33.03.7-.06,1.1-.26l.3.38Z"/>
  <path class="cls-3" d="M235.36,99.16l-.42.27-4.15-6.83.42-.27.34.56c.4.66.88,1.02,1.43,1.07.36.03,1-.25,1.93-.85l10.03-6.43c.79-.5,1.27-.89,1.46-1.15.14-.2.21-.47.2-.8-.03-.46-.15-.88-.38-1.26l-.34-.56.42-.27,4.15,6.83-.42.27-.35-.58c-.4-.65-.87-1-1.43-1.06-.36-.04-1.01.24-1.94.84l-10.02,6.43c-.79.51-1.27.89-1.46,1.15-.14.2-.21.47-.19.81.02.46.15.87.38,1.25l.35.58Z"/>
  <path class="cls-3" d="M256.54,100.74c.99,2.22,1.03,4.52.12,6.93-.91,2.4-2.6,4.17-5.05,5.33-2.53,1.19-4.99,1.36-7.39.51-2.4-.85-4.12-2.44-5.16-4.77-1.05-2.35-1.12-4.71-.21-7.08.91-2.37,2.66-4.16,5.24-5.38,2.64-1.25,5.21-1.34,7.7-.27,2.16.92,3.74,2.5,4.74,4.73M255.54,100.92c-.68-1.53-1.78-2.49-3.3-2.9-1.89-.5-4.15-.13-6.8,1.12-2.71,1.28-4.54,2.86-5.47,4.74-.7,1.44-.72,2.91-.05,4.42.72,1.6,1.92,2.64,3.6,3.11,1.68.47,3.84.09,6.46-1.15,2.85-1.34,4.71-2.92,5.59-4.73.7-1.45.69-2.99-.04-4.62"/>
  <path class="cls-3" d="M260.98,112.07l1.27,4.93-10.42,14.7,10.2-2.76c1.09-.29,1.73-.6,1.94-.93.28-.43.33-1,.14-1.72l-.16-.63.48-.13,1.62,6.33-.48.13-.17-.64c-.2-.77-.56-1.25-1.1-1.45-.33-.12-.99-.05-1.98.22l-14.91,4.04-.12-.48,11.17-15.84-10.89,2.95c-1.09.29-1.73.6-1.94.91-.28.44-.33,1.01-.15,1.72l.17.65-.48.13-1.62-6.33.48-.13.16.63c.2.78.57,1.27,1.1,1.46.33.12.99.05,1.98-.22l12.3-3.33c.46-.69.76-1.2.88-1.52.12-.32.2-.77.23-1.34.01-.28-.05-.68-.18-1.21l.48-.13Z"/>
  <path class="cls-3" d="M255.51,148.7l-.6-7.25-2.98-1.02c-.73-.25-1.28-.36-1.62-.33-.28.02-.51.18-.7.47-.19.29-.28.89-.27,1.8l-.5.04-.49-5.9.5-.04c.2.77.41,1.26.65,1.47.47.43,1.39.88,2.75,1.33l15.55,5.29.04.48-14.63,7.83c-1.18.63-1.93,1.17-2.26,1.64-.33.46-.48,1.07-.46,1.84l-.5.04-.61-7.39.5-.04c.1.74.26,1.24.49,1.48.23.24.49.35.79.33.39-.03,1-.27,1.82-.71l2.53-1.36ZM256.47,148.23l7.11-3.82-7.64-2.62.53,6.44Z"/>
  <path class="cls-3" d="M253.71,172.62l-.13.45-4.83-2,1.1-14.51.5.04-.05.71c-.06.79.15,1.38.62,1.76.27.22.93.37,1.97.45l11.77.94c1.14.09,1.86.02,2.17-.22.42-.33.66-.85.71-1.55l.05-.71.5.04-.64,8.49-.5-.04c.08-.99.05-1.7-.11-2.11-.16-.42-.38-.71-.65-.88-.27-.17-.96-.3-2.04-.39l-11.46-.92c-.74-.06-1.26-.03-1.55.1-.2.1-.35.26-.45.48-.11.22-.21.94-.3,2.15l-.1,1.37c-.11,1.44-.08,2.45.08,3.05.16.6.49,1.16.98,1.67.49.52,1.28,1.07,2.37,1.64"/>
  <path class="cls-3" d="M262.28,196.04l-6.1-1.74.13-.5c1.21.17,2.22.15,3.03-.07.81-.22,1.52-.65,2.13-1.3.61-.65,1.03-1.38,1.25-2.2.25-.93.18-1.77-.2-2.53-.39-.76-.93-1.24-1.63-1.44-.54-.15-1.08-.1-1.62.16-.8.37-2.02,1.43-3.66,3.2-1.34,1.44-2.33,2.4-2.97,2.89-.64.48-1.33.8-2.06.95-.73.15-1.45.13-2.15-.07-1.34-.38-2.34-1.24-3.02-2.58-.68-1.34-.79-2.85-.34-4.52.14-.52.31-1.01.52-1.45.12-.26.43-.79.94-1.58.51-.79.79-1.3.86-1.53.06-.22.04-.42-.05-.58-.1-.17-.34-.34-.73-.52l.13-.49,6.05,1.72-.13.49c-1.33-.13-2.36-.09-3.09.12-.74.21-1.42.66-2.05,1.35-.63.69-1.08,1.51-1.34,2.48-.3,1.11-.25,2.07.14,2.88.4.81.99,1.33,1.77,1.55.43.12.9.13,1.41,0,.51-.12,1.02-.38,1.54-.79.35-.27,1.16-1.06,2.43-2.37,1.26-1.31,2.23-2.22,2.91-2.73.68-.51,1.37-.85,2.07-1.02.7-.16,1.41-.14,2.14.07,1.26.36,2.22,1.17,2.86,2.43.65,1.26.76,2.66.34,4.2-.26.96-.76,1.92-1.51,2.86-.35.44-.56.76-.61.96-.06.23-.05.44.05.62.09.18.33.38.72.59l-.13.49Z"/>
  <path class="cls-3" d="M244.68,197.34c-.15.41-.42.69-.79.86-.38.17-.76.18-1.14.02-.39-.15-.66-.42-.83-.81-.17-.39-.18-.78-.03-1.18.15-.4.41-.68.79-.85.38-.17.76-.18,1.15-.03.39.16.67.43.84.81.16.39.17.78.02,1.17"/>
  <path class="cls-3" d="M241.09,213.8l3.3-6.44-1.98-2.51c-.49-.62-.88-1.01-1.2-1.18-.25-.13-.53-.13-.84,0-.31.14-.7.6-1.17,1.37l-.44-.24,2.68-5.24.44.24c-.24.76-.31,1.29-.22,1.6.17.62.71,1.5,1.62,2.65l10.33,13.05-.22.43-16.44-1.49c-1.32-.12-2.24-.07-2.76.13-.52.21-.97.64-1.36,1.29l-.44-.24,3.36-6.56.44.24c-.31.68-.43,1.18-.36,1.52.06.33.23.57.49.71.35.19.99.32,1.91.41l2.84.25ZM242.15,213.93l7.99.72-5.06-6.43-2.93,5.71Z"/>
  <path class="cls-3" d="M232.42,221.29c-.24.36-.56.57-.96.65-.4.07-.78-.01-1.12-.25-.34-.24-.55-.57-.63-.99-.08-.42,0-.8.24-1.15.23-.35.55-.56.96-.64.41-.08.78,0,1.12.24.35.25.56.58.63.99.07.41,0,.8-.24,1.15"/>
  <path class="cls-3" d="M234.96,244.78l-4.85-4.17.32-.39c1.04.67,1.96,1.08,2.78,1.23.82.15,1.64.05,2.46-.28.82-.33,1.5-.82,2.03-1.47.6-.74.88-1.53.83-2.39-.05-.86-.35-1.53-.9-2.01-.43-.37-.94-.55-1.54-.55-.88,0-2.42.44-4.62,1.35-1.8.74-3.09,1.2-3.87,1.36-.78.17-1.53.17-2.26,0-.73-.17-1.37-.5-1.93-.98-1.06-.91-1.63-2.12-1.71-3.63-.08-1.51.42-2.93,1.51-4.26.34-.42.69-.78,1.06-1.1.21-.19.71-.54,1.49-1.04.78-.5,1.25-.85,1.4-1.03.14-.18.21-.36.19-.55-.02-.19-.17-.45-.45-.78l.32-.39,4.81,4.14-.32.39c-1.16-.68-2.11-1.08-2.87-1.2-.75-.12-1.56,0-2.41.36-.85.35-1.59.92-2.22,1.68-.72.89-1.07,1.78-1.03,2.69.04.9.36,1.62.99,2.16.34.3.77.5,1.28.61.51.11,1.08.09,1.72-.06.43-.1,1.49-.47,3.16-1.13,1.68-.65,2.93-1.07,3.75-1.24.82-.18,1.59-.19,2.29-.05.7.15,1.34.47,1.92.97,1.01.86,1.55,2.01,1.63,3.43.08,1.42-.38,2.74-1.38,3.97-.62.76-1.47,1.42-2.53,1.96-.5.25-.81.45-.94.62-.15.18-.22.38-.21.59.01.21.15.49.42.84l-.32.39Z"/>
  <path class="cls-3" d="M218.39,238.49c-.3.3-.66.45-1.07.45-.41,0-.76-.16-1.05-.47-.29-.3-.43-.67-.43-1.09,0-.43.15-.79.45-1.08.3-.3.65-.44,1.06-.44.41,0,.76.16,1.05.46.3.31.44.67.43,1.1,0,.42-.16.78-.45,1.08"/>
</svg>